<?xml version="1.0" encoding="UTF-8" standalone="no"?>
<svg xmlns="http://www.w3.org/2000/svg" width="128" height="128" viewBox="0 0 128 128">
  <rect width="128" height="128" fill="#2c3e50" rx="16"/>
  <!-- petals -->
  <g fill="#f1c40f">
    <ellipse cx="64" cy="32"  rx="14" ry="22"/>
    <ellipse cx="64" cy="96"  rx="14" ry="22"/>
    <ellipse cx="32" cy="64"  rx="22" ry="14"/>
    <ellipse cx="96" cy="64"  rx="22" ry="14"/>
    <ellipse cx="40" cy="40"  rx="14" ry="18" transform="rotate(-45 40 40)"/>
    <ellipse cx="88" cy="40"  rx="14" ry="18" transform="rotate(45 88 40)"/>
    <ellipse cx="40" cy="88"  rx="14" ry="18" transform="rotate(45 40 88)"/>
    <ellipse cx="88" cy="88"  rx="14" ry="18" transform="rotate(-45 88 88)"/>
  </g>
  <!-- center -->
  <circle cx="64" cy="64" r="20" fill="#8e5a1c"/>
  <circle cx="58" cy="60" r="3" fill="#000"/>
  <circle cx="70" cy="60" r="3" fill="#000"/>
  <path d="M 56 70 Q 64 76 72 70" stroke="#000" stroke-width="2" fill="none" stroke-linecap="round"/>
</svg>
