<?xml version="1.0" encoding="UTF-8" standalone="no"?>
<svg xmlns="http://www.w3.org/2000/svg" width="96" height="96" viewBox="0 0 96 96">
  <!-- legs -->
  <rect x="34" y="68" width="10" height="22" fill="#37474f"/>
  <rect x="52" y="68" width="10" height="22" fill="#37474f"/>
  <rect x="32" y="86" width="14" height="4" fill="#212121"/>
  <rect x="50" y="86" width="14" height="4" fill="#212121"/>
  <!-- body (torn shirt) -->
  <rect x="28" y="38" width="40" height="34" fill="#7b1fa2"/>
  <path d="M 28 50 L 36 60 L 28 62 Z" fill="#4a148c"/>
  <path d="M 68 56 L 60 64 L 68 68 Z" fill="#4a148c"/>
  <!-- arms -->
  <rect x="14" y="40" width="14" height="8" fill="#a5d6a7"/>
  <rect x="68" y="40" width="14" height="8" fill="#a5d6a7"/>
  <rect x="10" y="38" width="6" height="12" fill="#81c784"/>
  <!-- head -->
  <ellipse cx="48" cy="26" rx="18" ry="18" fill="#a5d6a7"/>
  <!-- ear -->
  <ellipse cx="32" cy="26" rx="4" ry="6" fill="#81c784"/>
  <ellipse cx="64" cy="26" rx="4" ry="6" fill="#81c784"/>
  <!-- eyes -->
  <circle cx="42" cy="22" r="3" fill="#fff"/>
  <circle cx="54" cy="22" r="3" fill="#fff"/>
  <circle cx="42" cy="23" r="1.5" fill="#d32f2f"/>
  <circle cx="54" cy="23" r="1.5" fill="#d32f2f"/>
  <!-- mouth with tooth -->
  <path d="M 38 32 Q 48 38 58 32" stroke="#000" stroke-width="2" fill="#3e2723"/>
  <rect x="46" y="34" width="3" height="4" fill="#fff"/>
  <!-- hair tufts -->
  <path d="M 36 12 L 38 8 L 40 12 M 44 10 L 46 6 L 48 10 M 52 10 L 54 6 L 56 10" stroke="#3e2723" stroke-width="2" fill="none"/>
</svg>
