<?xml version="1.0" encoding="UTF-8" standalone="no"?>
<svg xmlns="http://www.w3.org/2000/svg" width="96" height="96" viewBox="0 0 96 96">
  <!-- legs -->
  <rect x="34" y="72" width="10" height="20" fill="#37474f"/>
  <rect x="52" y="72" width="10" height="20" fill="#37474f"/>
  <rect x="32" y="88" width="14" height="4" fill="#212121"/>
  <rect x="50" y="88" width="14" height="4" fill="#212121"/>
  <!-- body -->
  <rect x="28" y="42" width="40" height="34" fill="#7b1fa2"/>
  <!-- arms -->
  <rect x="14" y="44" width="14" height="8" fill="#a5d6a7"/>
  <rect x="68" y="44" width="14" height="8" fill="#a5d6a7"/>
  <rect x="10" y="42" width="6" height="12" fill="#81c784"/>
  <!-- head -->
  <ellipse cx="48" cy="30" rx="18" ry="18" fill="#a5d6a7"/>
  <ellipse cx="32" cy="30" rx="4" ry="6" fill="#81c784"/>
  <ellipse cx="64" cy="30" rx="4" ry="6" fill="#81c784"/>
  <!-- bucket -->
  <rect x="26" y="2" width="44" height="22" fill="#9e9e9e" rx="2"/>
  <rect x="26" y="2" width="44" height="4" fill="#616161"/>
  <rect x="28" y="6" width="40" height="2" fill="#bdbdbd"/>
  <rect x="28" y="20" width="40" height="2" fill="#616161"/>
  <ellipse cx="48" cy="24" rx="22" ry="3" fill="#424242"/>
  <!-- handle -->
  <path d="M 22 6 Q 48 -6 74 6" stroke="#424242" stroke-width="2" fill="none"/>
  <!-- eyes peeking -->
  <circle cx="42" cy="32" r="2.5" fill="#fff"/>
  <circle cx="54" cy="32" r="2.5" fill="#fff"/>
  <circle cx="42" cy="33" r="1.3" fill="#d32f2f"/>
  <circle cx="54" cy="33" r="1.3" fill="#d32f2f"/>
  <path d="M 40 40 Q 48 44 56 40" stroke="#000" stroke-width="2" fill="#3e2723"/>
</svg>
