<?xml version="1.0" encoding="UTF-8" standalone="no"?>
<svg xmlns="http://www.w3.org/2000/svg" width="96" height="96" viewBox="0 0 96 96">
  <!-- legs -->
  <rect x="34" y="72" width="10" height="20" fill="#37474f"/>
  <rect x="52" y="72" width="10" height="20" fill="#37474f"/>
  <rect x="32" y="88" width="14" height="4" fill="#212121"/>
  <rect x="50" y="88" width="14" height="4" fill="#212121"/>
  <!-- body -->
  <rect x="28" y="42" width="40" height="34" fill="#7b1fa2"/>
  <!-- arms -->
  <rect x="14" y="44" width="14" height="8" fill="#a5d6a7"/>
  <rect x="68" y="44" width="14" height="8" fill="#a5d6a7"/>
  <rect x="10" y="42" width="6" height="12" fill="#81c784"/>
  <!-- head -->
  <ellipse cx="48" cy="30" rx="18" ry="18" fill="#a5d6a7"/>
  <ellipse cx="32" cy="30" rx="4" ry="6" fill="#81c784"/>
  <ellipse cx="64" cy="30" rx="4" ry="6" fill="#81c784"/>
  <circle cx="42" cy="26" r="3" fill="#fff"/>
  <circle cx="54" cy="26" r="3" fill="#fff"/>
  <circle cx="42" cy="27" r="1.5" fill="#d32f2f"/>
  <circle cx="54" cy="27" r="1.5" fill="#d32f2f"/>
  <path d="M 38 36 Q 48 42 58 36" stroke="#000" stroke-width="2" fill="#3e2723"/>
  <!-- traffic cone -->
  <path d="M 32 14 L 64 14 L 56 -2 L 40 -2 Z" fill="#ff6f00"/>
  <path d="M 32 14 L 64 14 L 62 8 L 34 8 Z" fill="#e65100"/>
  <rect x="34" y="4" width="28" height="3" fill="#fff"/>
  <rect x="36" y="-2" width="24" height="3" fill="#fff"/>
  <ellipse cx="48" cy="14" rx="16" ry="3" fill="#bf360c"/>
</svg>
