<?xml version="1.0" encoding="UTF-8" standalone="no"?>
<svg xmlns="http://www.w3.org/2000/svg" width="96" height="96" viewBox="0 0 96 96">
  <!-- legs -->
  <rect x="34" y="68" width="10" height="22" fill="#37474f"/>
  <rect x="52" y="68" width="10" height="22" fill="#37474f"/>
  <rect x="32" y="86" width="14" height="4" fill="#212121"/>
  <rect x="50" y="86" width="14" height="4" fill="#212121"/>
  <!-- body -->
  <rect x="28" y="40" width="36" height="30" fill="#5d4037"/>
  <!-- arms -->
  <rect x="14" y="42" width="14" height="8" fill="#a5d6a7"/>
  <rect x="60" y="42" width="14" height="8" fill="#a5d6a7"/>
  <rect x="10" y="40" width="6" height="12" fill="#81c784"/>
  <!-- head -->
  <ellipse cx="46" cy="28" rx="18" ry="18" fill="#a5d6a7"/>
  <ellipse cx="30" cy="28" rx="4" ry="6" fill="#81c784"/>
  <ellipse cx="62" cy="28" rx="4" ry="6" fill="#81c784"/>
  <circle cx="40" cy="24" r="3" fill="#fff"/>
  <circle cx="52" cy="24" r="3" fill="#fff"/>
  <circle cx="40" cy="25" r="1.5" fill="#d32f2f"/>
  <circle cx="52" cy="25" r="1.5" fill="#d32f2f"/>
  <path d="M 36 34 Q 46 40 56 34" stroke="#000" stroke-width="2" fill="#3e2723"/>
  <!-- flag pole and flag -->
  <rect x="74" y="14" width="2" height="60" fill="#5d4037"/>
  <path d="M 76 14 L 92 18 L 76 26 Z" fill="#c62828"/>
  <text x="78" y="24" font-size="6" fill="#fff" font-family="sans-serif">!</text>
</svg>
