<?xml version="1.0" encoding="UTF-8" standalone="no"?>
<svg xmlns="http://www.w3.org/2000/svg" width="96" height="480" viewBox="0 0 96 480">
  <!-- house wall left strip -->
  <rect width="96" height="480" fill="#8d6e63"/>
  <!-- bricks -->
  <g stroke="#5d4037" stroke-width="1" fill="none">
    <line x1="0" y1="40" x2="96" y2="40"/>
    <line x1="0" y1="80" x2="96" y2="80"/>
    <line x1="0" y1="120" x2="96" y2="120"/>
    <line x1="0" y1="160" x2="96" y2="160"/>
    <line x1="0" y1="200" x2="96" y2="200"/>
    <line x1="0" y1="240" x2="96" y2="240"/>
    <line x1="0" y1="280" x2="96" y2="280"/>
    <line x1="0" y1="320" x2="96" y2="320"/>
    <line x1="0" y1="360" x2="96" y2="360"/>
    <line x1="0" y1="400" x2="96" y2="400"/>
    <line x1="0" y1="440" x2="96" y2="440"/>
    <line x1="48" y1="0"   x2="48" y2="40"/>
    <line x1="48" y1="80"  x2="48" y2="120"/>
    <line x1="48" y1="160" x2="48" y2="200"/>
    <line x1="48" y1="240" x2="48" y2="280"/>
    <line x1="48" y1="320" x2="48" y2="360"/>
    <line x1="48" y1="400" x2="48" y2="440"/>
    <line x1="0"  y1="40"  x2="0"  y2="80"/>
    <line x1="96" y1="40"  x2="96" y2="80"/>
  </g>
  <!-- door (decorative) -->
  <rect x="20" y="200" width="56" height="80" fill="#3e2723" rx="4"/>
  <rect x="24" y="204" width="48" height="72" fill="#5d4037" rx="3"/>
  <circle cx="64" cy="240" r="3" fill="#ffd54f"/>
</svg>
