<?xml version="1.0" encoding="UTF-8" standalone="no"?>
<svg xmlns="http://www.w3.org/2000/svg" width="96" height="96" viewBox="0 0 96 96">
  <!-- pot -->
  <ellipse cx="48" cy="82" rx="22" ry="6" fill="#5d4037"/>
  <rect x="28" y="72" width="40" height="12" fill="#795548" rx="2"/>
  <!-- stem -->
  <rect x="40" y="38" width="8" height="38" fill="#1b5e20"/>
  <ellipse cx="32" cy="58" rx="10" ry="5" fill="#33691e" transform="rotate(-25 32 58)"/>
  <ellipse cx="56" cy="64" rx="10" ry="5" fill="#33691e" transform="rotate(25 56 64)"/>
  <!-- head -->
  <ellipse cx="48" cy="34" rx="20" ry="18" fill="#2e7d32"/>
  <ellipse cx="48" cy="36" rx="14" ry="12" fill="#66bb6a"/>
  <!-- two mouths -->
  <rect x="60" y="22" width="14" height="10" rx="2" fill="#1b5e20"/>
  <circle cx="74" cy="27" r="5" fill="#0d3a13"/>
  <circle cx="75" cy="27" r="2.5" fill="#000"/>
  <rect x="60" y="38" width="14" height="10" rx="2" fill="#1b5e20"/>
  <circle cx="74" cy="43" r="5" fill="#0d3a13"/>
  <circle cx="75" cy="43" r="2.5" fill="#000"/>
  <!-- eye -->
  <circle cx="42" cy="30" r="4" fill="#fff"/>
  <circle cx="44" cy="31" r="2" fill="#000"/>
</svg>
