<?xml version="1.0" encoding="UTF-8" standalone="no"?>
<svg xmlns="http://www.w3.org/2000/svg" width="96" height="96" viewBox="0 0 96 96">
  <!-- pot -->
  <ellipse cx="48" cy="82" rx="22" ry="6" fill="#5d4037"/>
  <rect x="28" y="72" width="40" height="12" fill="#795548" rx="2"/>
  <!-- stem -->
  <rect x="44" y="40" width="8" height="36" fill="#558b2f"/>
  <ellipse cx="38" cy="56" rx="8" ry="4" fill="#7cb342" transform="rotate(-20 38 56)"/>
  <ellipse cx="58" cy="62" rx="8" ry="4" fill="#7cb342" transform="rotate(20 58 62)"/>
  <!-- petals -->
  <g fill="#fbc02d">
    <ellipse cx="48" cy="14" rx="8" ry="14"/>
    <ellipse cx="48" cy="50" rx="8" ry="14"/>
    <ellipse cx="30" cy="32" rx="14" ry="8"/>
    <ellipse cx="66" cy="32" rx="14" ry="8"/>
    <ellipse cx="36" cy="20" rx="9" ry="11" transform="rotate(-45 36 20)"/>
    <ellipse cx="60" cy="20" rx="9" ry="11" transform="rotate(45 60 20)"/>
    <ellipse cx="36" cy="44" rx="9" ry="11" transform="rotate(45 36 44)"/>
    <ellipse cx="60" cy="44" rx="9" ry="11" transform="rotate(-45 60 44)"/>
  </g>
  <!-- center face -->
  <circle cx="48" cy="32" r="13" fill="#6d4c1c"/>
  <circle cx="43" cy="29" r="2.2" fill="#fff"/>
  <circle cx="53" cy="29" r="2.2" fill="#fff"/>
  <circle cx="43" cy="29" r="1.2" fill="#000"/>
  <circle cx="53" cy="29" r="1.2" fill="#000"/>
  <path d="M 42 36 Q 48 41 54 36" stroke="#000" stroke-width="1.5" fill="none" stroke-linecap="round"/>
</svg>
