<svg xmlns="http://www.w3.org/2000/svg" viewBox="0 0 80 100" width="80" height="100">
  <!-- 树干 -->
  <rect x="32" y="55" width="16" height="35" fill="#5D4037" rx="2"/>
  <!-- 火焰底座 -->
  <ellipse cx="40" cy="55" rx="22" ry="8" fill="#3E2723"/>
  <!-- 火焰外圈（橙） -->
  <path d="M 40 8 C 50 18 58 30 56 45 C 54 55 44 60 40 60 C 36 60 26 55 24 45 C 22 30 30 18 40 8 Z" fill="#FF6F00"/>
  <!-- 火焰中圈（红） -->
  <path d="M 40 18 C 47 25 52 33 50 43 C 48 50 42 54 40 54 C 38 54 32 50 30 43 C 28 33 33 25 40 18 Z" fill="#E64A19"/>
  <!-- 火焰内圈（黄） -->
  <path d="M 40 30 C 44 34 46 39 45 44 C 44 48 42 50 40 50 C 38 50 36 48 35 44 C 34 39 36 34 40 30 Z" fill="#FFD600"/>
  <!-- 高光 -->
  <circle cx="36" cy="22" r="3" fill="#FFF59D" opacity="0.8"/>
</svg>
